<svg width="216" height="30" viewBox="0 0 216 30" fill="none" xmlns="http://www.w3.org/2000/svg">
<path d="M215.35 29.6644H209.476L196.175 9.56646L196.175 0.335693L209.476 20.4756V0.335693H215.35V29.6644Z" fill="#fff"/>
<path d="M39.0839 0.335693V5.07695H21V12.5874H62.4336V17.2448H26.8741V29.6224H21V0.335693H39.0839Z" fill="#fff"/>
<path d="M81.2101 29.6224L74.7486 18.2098H71.9794V29.6224H66.1052V0.335693H77.0982C79.364 0.335693 81.294 0.741286 82.8884 1.55247C84.4828 2.33569 85.6717 3.41262 86.4549 4.78324C87.2661 6.1259 87.6717 7.63639 87.6717 9.31471C87.6717 11.2448 87.1122 12.993 85.9933 14.5595C84.8745 16.0979 83.2101 17.1609 81.0003 17.7483L88.0073 29.6224H81.2101ZM66.1052 13.8042H76.8884C78.4828 13.8042 79.6717 13.4266 80.4549 12.6714C81.2381 11.8881 81.6297 10.8112 81.6297 9.44059C81.6297 8.09793 81.2381 7.06296 80.4549 6.33569C79.6717 5.58045 78.4828 5.20282 76.8884 5.20282H66.1052V13.8042Z" fill="#fff"/>
<path d="M104.686 0.335693V5.07695H94.0072V29.6224H88.1331V5.07695L88.1331 0.335693H104.686Z" fill="#fff"/>
<path d="M141.629 5.11891V12.4616H158.622V17.1189H141.629V24.8812H158.622V29.6644H141.629V0.335693H158.622V5.11891H141.629Z" fill="#fff"/>
<path d="M179.392 5.11891V12.4616H196.385V17.1189H179.392V24.8812H196.385V29.6644H179.392V0.335693H196.385V5.11891H179.392Z" fill="#fff"/>
<path d="M185.517 0.419678L174.776 29.7064H169.221L171.252 23.7064L168.902 16.0699L165.755 23.9371L156.902 0.419678H163.196L168.902 16.0699L171.252 23.7064L179.266 0.419678H185.517Z" fill="#fff"/>
<path d="M130.743 30C128.701 30 126.855 29.6504 125.204 28.9511C123.582 28.2517 122.295 27.2448 121.344 25.9301C120.393 24.6154 119.904 23.0629 119.876 21.2727H126.169C126.253 22.4755 126.673 23.4266 127.428 24.1259C128.211 24.8252 129.274 25.1748 130.617 25.1748C131.988 25.1748 133.065 24.8531 133.848 24.2098C134.631 23.5385 135.023 22.6713 135.023 21.6084C135.023 20.7413 134.757 20.028 134.225 19.4685C133.694 18.9091 133.023 18.4755 132.211 18.1678C131.428 17.8322 130.337 17.4685 128.939 17.0769C127.037 16.5175 125.484 15.972 124.281 15.4406C123.107 14.8811 122.086 14.0559 121.218 12.965C120.379 11.8462 119.96 10.3636 119.96 8.51748C119.96 6.78322 120.393 5.27273 121.26 3.98601C122.127 2.6993 123.344 1.72028 124.911 1.04895C126.477 0.349649 128.267 0 130.281 0C133.302 0 135.75 0.741258 137.624 2.22378C139.526 3.67832 140.575 5.72028 140.771 8.34965H134.309C134.253 7.34266 133.82 6.51748 133.009 5.87412C132.225 5.2028 131.176 4.86713 129.862 4.86713C128.715 4.86713 127.792 5.16084 127.093 5.74825C126.421 6.33566 126.086 7.18881 126.086 8.30769C126.086 9.09091 126.337 9.74825 126.841 10.2797C127.372 10.7832 128.016 11.2028 128.771 11.5385C129.554 11.8462 130.645 12.2098 132.044 12.6294C133.946 13.1888 135.498 13.7483 136.701 14.3077C137.904 14.8671 138.939 15.7063 139.806 16.8252C140.673 17.9441 141.107 19.4126 141.107 21.2308C141.107 22.7972 140.701 24.2517 139.89 25.5944C139.079 26.9371 137.89 28.014 136.323 28.8252C134.757 29.6084 132.897 30 130.743 30Z" fill="#fff"/>
<path d="M123.755 0.419678L113.853 19.5106V29.7064H107.979V19.5106L110.958 13.8043L108.587 8.72729L105.44 14.4965L98.0347 0.419678H104.664L108.587 8.72729L110.958 13.8043L117.209 0.419678H123.755Z" fill="#fff"/>
<path d="M51.1257 30C48.3845 30 45.867 29.3566 43.5733 28.0699C41.2796 26.7832 39.4614 25.007 38.1187 22.7413C36.7761 20.4476 36.1047 17.8601 36.1047 14.979C36.1047 12.1259 36.7761 9.56643 38.1187 7.3007C39.4614 5.00699 41.2796 3.21678 43.5733 1.93007C45.867 0.643354 48.3845 0 51.1257 0C53.8949 0 56.4124 0.643354 58.6782 1.93007C60.9719 3.21678 62.7761 5.00699 64.0908 7.3007C65.4334 9.56643 66.1047 12.1259 66.1047 14.979C66.1047 17.8601 65.4334 20.4476 64.0908 22.7413C62.7761 25.007 60.9719 26.7832 58.6782 28.0699C56.3845 29.3566 53.867 30 51.1257 30ZM51.1257 24.7552C52.888 24.7552 54.4404 24.3636 55.7831 23.5804C57.1257 22.7692 58.1747 21.6224 58.9299 20.1399C59.6852 18.6573 60.0628 16.9371 60.0628 14.979C60.0628 13.021 59.6852 11.3147 58.9299 9.86014C58.1747 8.37762 57.1257 7.24476 55.7831 6.46154C54.4404 5.67832 52.888 5.28671 51.1257 5.28671C49.3635 5.28671 47.797 5.67832 46.4264 6.46154C45.0838 7.24476 44.0348 8.37762 43.2796 9.86014C42.5243 11.3147 42.1467 13.021 42.1467 14.979C42.1467 16.9371 42.5243 18.6573 43.2796 20.1399C44.0348 21.6224 45.0838 22.7692 46.4264 23.5804C47.797 24.3636 49.3635 24.7552 51.1257 24.7552Z" fill="#fff"/>
<path d="M0.261474 20.7666L3.11741 20.7666L3.11742 26.4617L17.9026 26.4617L17.9026 30L3.11742 30L0.261475 29.9999L0.261474 20.7666Z" fill="#DA1B1B"/>
<path d="M2.88122 10.2358L7.30413 10.2358L7.30413 -5.61263e-05L10.1095 -5.6249e-05L10.1095 10.2358L14.7852 10.2358L14.7852 -5.64533e-05L17.6664 -5.65793e-05L17.6664 10.2358L0 10.2358L-4.47425e-07 -5.58071e-05L2.88121 -5.5933e-05L2.88122 10.2358Z" fill="#DA1B1B"/>
<path d="M-4.84987e-07 11.7776L17.6411 11.7776L17.6411 15.3159L10.1348 15.3159L10.1348 19.7136L17.6411 19.7136L17.6411 22.8728L7.25358 22.8728L7.25358 19.7136L7.25358 15.3159L-3.30321e-07 15.3159L-4.84987e-07 11.7776Z" fill="#DA1B1B"/>
</svg>
