<svg width="303" height="211" viewBox="0 0 303 211" fill="none" xmlns="http://www.w3.org/2000/svg">
<rect width="61.6959" height="9.87134" transform="matrix(1 8.74228e-08 8.74228e-08 -1 17 151.772)" fill="#444444"/>
<rect width="61.6959" height="9.87134" transform="matrix(-1 0 0 1 156.696 157.942)" fill="#444444"/>
<rect width="61.6959" height="9.87134" transform="matrix(1 8.74228e-08 8.74228e-08 -1 17 186.322)" fill="#444444"/>
<rect width="61.6959" height="9.87134" transform="matrix(-1 0 0 1 156.696 123.392)" fill="#444444"/>
<rect width="61.6959" height="9.87134" transform="matrix(-1 -1.74846e-07 -1.74846e-07 1 235.679 160.409)" fill="#666666"/>
<rect width="80" height="10" transform="matrix(1 8.74228e-08 8.74228e-08 -1 199 152)" fill="#777777"/>
<rect width="61.6959" height="9.87134" transform="matrix(1 8.74228e-08 8.74228e-08 -1 198.661 186.322)" fill="#777777"/>
<rect width="86.3743" height="9.87134" transform="matrix(-1 -1.74846e-07 -1.74846e-07 1 260.357 123.392)" fill="#666666"/>
<rect width="37.0175" height="9.87134" transform="matrix(1 8.74228e-08 8.74228e-08 -1 17 170.281)" fill="#999999"/>
<rect width="37.0175" height="9.87134" transform="matrix(-1 0 0 1 132 139.433)" fill="#999999"/>
<rect width="37.0175" height="9.87134" transform="matrix(-1 -1.74846e-07 -1.74846e-07 1 54.0176 123.392)" fill="#555555"/>
<rect width="37.0175" height="9.87134" transform="matrix(1 8.74228e-08 8.74228e-08 -1 95 186.322)" fill="#555555"/>
<rect x="0.5" y="0.5" width="301.31" height="210" rx="19.5" stroke="white"/>
<rect x="95" y="30" width="81" height="9" fill="#999999"/>
<rect x="186" y="30" width="94" height="9" fill="#999999"/>
<rect x="17" y="91" width="94" height="10" fill="#999999"/>
<rect x="116" y="91" width="94" height="10" fill="#999999"/>
<rect x="215" y="91" width="64" height="10" fill="#999999"/>
<rect x="95.0117" y="45.655" width="123.392" height="9.87134" fill="#666666"/>
<rect x="230.742" y="45.655" width="49.3567" height="9.87134" fill="#666666"/>
<rect x="95.0117" y="61.6959" width="49.3567" height="9.87134" fill="#666666"/>
<rect x="156.708" y="61.6959" width="24.6784" height="9.87134" fill="#666666"/>
<rect x="254.188" y="61.6959" width="24.6784" height="9.87134" fill="#666666"/>
<rect x="193.725" y="61.6959" width="49.3567" height="9.87134" fill="#666666"/>
<g clip-path="url(#clip0_1318_1327)">
<path d="M60.9375 45.875C60.9375 48.1128 60.0486 50.2589 58.4662 51.8412C56.8839 53.4236 54.7378 54.3125 52.5 54.3125C50.2622 54.3125 48.1161 53.4236 46.5338 51.8412C44.9514 50.2589 44.0625 48.1128 44.0625 45.875C44.0625 43.6372 44.9514 41.4911 46.5338 39.9088C48.1161 38.3264 50.2622 37.4375 52.5 37.4375C54.7378 37.4375 56.8839 38.3264 58.4662 39.9088C60.0486 41.4911 60.9375 43.6372 60.9375 45.875V45.875Z" fill="#999"/>
<path fill-rule="evenodd" clip-rule="evenodd" d="M30 51.5C30 45.5326 32.3705 39.8097 36.5901 35.5901C40.8097 31.3705 46.5326 29 52.5 29C58.4674 29 64.1903 31.3705 68.4099 35.5901C72.6295 39.8097 75 45.5326 75 51.5C75 57.4674 72.6295 63.1903 68.4099 67.4099C64.1903 71.6295 58.4674 74 52.5 74C46.5326 74 40.8097 71.6295 36.5901 67.4099C32.3705 63.1903 30 57.4674 30 51.5V51.5ZM52.5 31.8125C48.7925 31.8127 45.1604 32.8598 42.0218 34.8332C38.8831 36.8066 36.3655 39.6262 34.7586 42.9674C33.1518 46.3086 32.5211 50.0356 32.9391 53.7195C33.357 57.4034 34.8067 60.8943 37.1213 63.7906C39.1181 60.5731 43.5141 57.125 52.5 57.125C61.4859 57.125 65.8791 60.5703 67.8788 63.7906C70.1933 60.8943 71.643 57.4034 72.0609 53.7195C72.4789 50.0356 71.8482 46.3086 70.2414 42.9674C68.6345 39.6262 66.1169 36.8066 62.9782 34.8332C59.8396 32.8598 56.2075 31.8127 52.5 31.8125V31.8125Z" fill="#999"/>
</g>
<defs>
<clipPath id="clip0_1318_1327">
<rect width="45" height="45" fill="white" transform="translate(30 29)"/>
</clipPath>
</defs>
</svg>
