<svg width="223" height="407" viewBox="0 0 223 407" fill="none" xmlns="http://www.w3.org/2000/svg">
<rect x="3.5" y="0.5" width="216" height="406" rx="19.5" stroke="white"/>
<rect x="10.5" y="7.99731" width="202" height="389.934" rx="19.5" stroke="#999999"/>
<rect x="28" y="28" width="20" height="8" fill="#999999"/>
<rect x="156" y="28" width="40" height="8" fill="#666666"/>
<rect opacity="0.9" x="132" y="28" width="20" height="8" fill="#999999"/>
<circle cx="96" cy="382" r="4" fill="#666666"/>
<circle cx="112" cy="382" r="4" fill="#666666"/>
<circle cx="128" cy="382" r="4" fill="#666666"/>
<line x1="1.5" y1="90" x2="1.5" y2="155" stroke="white" stroke-width="3"/>
<line x1="1.5" y1="163" x2="1.5" y2="190" stroke="white" stroke-width="3"/>
<line x1="221.5" y1="317" x2="221.5" y2="344" stroke="white" stroke-width="3"/>
<rect x="179" y="172" width="40" height="5" transform="rotate(180 179 172)" fill="#444444"/>
<rect x="132" y="172" width="56" height="5" transform="rotate(180 132 172)" fill="#777777"/>
<rect x="70" y="172" width="24" height="5" transform="rotate(180 70 172)" fill="#999999"/>
<rect x="46" y="176" width="40" height="5" fill="#444444"/>
<rect x="93" y="176" width="56" height="5" fill="#777777"/>
<rect x="155" y="176" width="24" height="5" fill="#999999"/>
<rect x="46" y="157" width="40" height="5" fill="#666666"/>
<rect x="93" y="157" width="56" height="5" fill="#666666"/>
<rect x="155" y="157" width="24" height="5" fill="#555555"/>
<rect x="195.5" y="144.5" width="49" height="167" rx="9.5" transform="rotate(90 195.5 144.5)" stroke="#999999"/>
<rect x="46" y="245" width="40" height="5" fill="#444444"/>
<rect x="93" y="245" width="56" height="5" fill="#777777"/>
<rect x="155" y="245" width="24" height="5" fill="#999999"/>
<rect x="179" y="241" width="40" height="5" transform="rotate(180 179 241)" fill="#444444"/>
<rect x="132" y="241" width="56" height="5" transform="rotate(180 132 241)" fill="#777777"/>
<rect x="70" y="241" width="24" height="5" transform="rotate(180 70 241)" fill="#999999"/>
<rect x="179" y="260" width="40" height="5" transform="rotate(180 179 260)" fill="#666666"/>
<rect x="132" y="260" width="56" height="5" transform="rotate(180 132 260)" fill="#666666"/>
<rect x="70" y="260" width="24" height="5" transform="rotate(180 70 260)" fill="#555555"/>
<rect x="195.5" y="223.5" width="49" height="167" rx="9.5" transform="rotate(90 195.5 223.5)" stroke="#999999"/>
<rect x="128.5" y="302.5" width="49" height="100" rx="9.5" transform="rotate(90 128.5 302.5)" stroke="#999999"/>
<circle cx="45.5" cy="327.5" r="2.5" fill="#333333"/>
<circle cx="45.5" cy="327.5" r="6" stroke="#666666"/>
<rect opacity="0.9" x="70" y="317" width="50" height="5" fill="#888888"/>
<rect opacity="0.9" x="70" y="325" width="21.4286" height="5" fill="#999999"/>
<rect opacity="0.9" x="98.5713" y="325" width="21.4286" height="5" fill="#555555"/>
<rect opacity="0.9" x="70" y="333" width="50" height="5" fill="#444444"/>
<circle cx="45.5" cy="327.5" r="8.5" stroke="#888888" stroke-width="2"/>
<rect x="195.5" y="302.5" width="49" height="61" rx="9.5" transform="rotate(90 195.5 302.5)" stroke="#999999"/>
<rect x="145" y="315" width="5" height="5" fill="#444444"/>
<rect x="145" y="325" width="5" height="5" fill="#D9D9D9"/>
<rect x="145" y="335" width="5" height="5" fill="#666666"/>
<rect x="157" y="315" width="5" height="5" fill="#888888"/>
<rect x="157" y="325" width="5" height="5" fill="#555555"/>
<rect x="157" y="335" width="5" height="5" fill="#999999"/>
<rect x="169" y="315" width="5" height="5" fill="#D9D9D9"/>
<rect x="169" y="325" width="5" height="5" fill="#D9D9D9"/>
<rect x="169" y="335" width="5" height="5" fill="#D9D9D9"/>
<rect x="181" y="315" width="5" height="5" fill="#555555"/>
<rect x="181" y="325" width="5" height="5" fill="#777777"/>
<rect x="181" y="335" width="5" height="5" fill="#444444"/>
<rect x="103.5" y="65.5" width="91" height="49" rx="9.5" stroke="#999999"/>
<rect opacity="0.9" x="114" y="79" width="35" height="5" fill="#888888"/>
<rect opacity="0.9" x="114" y="87" width="15" height="5" fill="#999999"/>
<rect opacity="0.9" x="134" y="87" width="15" height="5" fill="#555555"/>
<rect opacity="0.9" x="114" y="95" width="35" height="5" fill="#444444"/>
<path d="M167.812 77C168.02 77 168.218 77.0823 168.365 77.2288C168.511 77.3753 168.594 77.574 168.594 77.7812V80.125H170.156V77.7812C170.156 77.574 170.239 77.3753 170.385 77.2288C170.532 77.0823 170.73 77 170.938 77C171.145 77 171.343 77.0823 171.49 77.2288C171.636 77.3753 171.719 77.574 171.719 77.7812V80.125H173.281V77.7812C173.281 77.574 173.364 77.3753 173.51 77.2288C173.657 77.0823 173.855 77 174.062 77C174.27 77 174.468 77.0823 174.615 77.2288C174.761 77.3753 174.844 77.574 174.844 77.7812V80.125H176.406V77.7812C176.406 77.574 176.489 77.3753 176.635 77.2288C176.782 77.0823 176.98 77 177.188 77C177.395 77 177.593 77.0823 177.74 77.2288C177.886 77.3753 177.969 77.574 177.969 77.7812V80.125C179.005 80.125 179.998 80.5366 180.731 81.2691C181.463 82.0017 181.875 82.9952 181.875 84.0312H184.219C184.426 84.0312 184.625 84.1136 184.771 84.2601C184.918 84.4066 185 84.6053 185 84.8125C185 85.0197 184.918 85.2184 184.771 85.3649C184.625 85.5114 184.426 85.5938 184.219 85.5938H181.875V87.1562H184.219C184.426 87.1562 184.625 87.2386 184.771 87.3851C184.918 87.5316 185 87.7303 185 87.9375C185 88.1447 184.918 88.3434 184.771 88.4899C184.625 88.6364 184.426 88.7188 184.219 88.7188H181.875V90.2812H184.219C184.426 90.2812 184.625 90.3636 184.771 90.5101C184.918 90.6566 185 90.8553 185 91.0625C185 91.2697 184.918 91.4684 184.771 91.6149C184.625 91.7614 184.426 91.8438 184.219 91.8438H181.875V93.4062H184.219C184.426 93.4062 184.625 93.4886 184.771 93.6351C184.918 93.7816 185 93.9803 185 94.1875C185 94.3947 184.918 94.5934 184.771 94.7399C184.625 94.8864 184.426 94.9688 184.219 94.9688H181.875C181.875 96.0048 181.463 96.9983 180.731 97.7309C179.998 98.4635 179.005 98.875 177.969 98.875V101.219C177.969 101.426 177.886 101.625 177.74 101.771C177.593 101.918 177.395 102 177.188 102C176.98 102 176.782 101.918 176.635 101.771C176.489 101.625 176.406 101.426 176.406 101.219V98.875H174.844V101.219C174.844 101.426 174.761 101.625 174.615 101.771C174.468 101.918 174.27 102 174.062 102C173.855 102 173.657 101.918 173.51 101.771C173.364 101.625 173.281 101.426 173.281 101.219V98.875H171.719V101.219C171.719 101.426 171.636 101.625 171.49 101.771C171.343 101.918 171.145 102 170.938 102C170.73 102 170.532 101.918 170.385 101.771C170.239 101.625 170.156 101.426 170.156 101.219V98.875H168.594V101.219C168.594 101.426 168.511 101.625 168.365 101.771C168.218 101.918 168.02 102 167.812 102C167.605 102 167.407 101.918 167.26 101.771C167.114 101.625 167.031 101.426 167.031 101.219V98.875C165.995 98.875 165.002 98.4635 164.269 97.7309C163.537 96.9983 163.125 96.0048 163.125 94.9688H160.781C160.574 94.9688 160.375 94.8864 160.229 94.7399C160.082 94.5934 160 94.3947 160 94.1875C160 93.9803 160.082 93.7816 160.229 93.6351C160.375 93.4886 160.574 93.4062 160.781 93.4062H163.125V91.8438H160.781C160.574 91.8438 160.375 91.7614 160.229 91.6149C160.082 91.4684 160 91.2697 160 91.0625C160 90.8553 160.082 90.6566 160.229 90.5101C160.375 90.3636 160.574 90.2812 160.781 90.2812H163.125V88.7188H160.781C160.574 88.7188 160.375 88.6364 160.229 88.4899C160.082 88.3434 160 88.1447 160 87.9375C160 87.7303 160.082 87.5316 160.229 87.3851C160.375 87.2386 160.574 87.1562 160.781 87.1562H163.125V85.5938H160.781C160.574 85.5938 160.375 85.5114 160.229 85.3649C160.082 85.2184 160 85.0197 160 84.8125C160 84.6053 160.082 84.4066 160.229 84.2601C160.375 84.1136 160.574 84.0312 160.781 84.0312H163.125C163.125 82.9952 163.537 82.0017 164.269 81.2691C165.002 80.5366 165.995 80.125 167.031 80.125V77.7812C167.031 77.574 167.114 77.3753 167.26 77.2288C167.407 77.0823 167.605 77 167.812 77ZM167.031 81.6875C166.41 81.6875 165.814 81.9344 165.374 82.374C164.934 82.8135 164.688 83.4096 164.688 84.0312V94.9688C164.688 95.5904 164.934 96.1865 165.374 96.626C165.814 97.0656 166.41 97.3125 167.031 97.3125H177.969C178.59 97.3125 179.186 97.0656 179.626 96.626C180.066 96.1865 180.312 95.5904 180.312 94.9688V84.0312C180.312 83.4096 180.066 82.8135 179.626 82.374C179.186 81.9344 178.59 81.6875 177.969 81.6875H167.031ZM167.812 87.1562C167.812 86.5346 168.059 85.9385 168.499 85.499C168.939 85.0594 169.535 84.8125 170.156 84.8125H174.844C175.465 84.8125 176.061 85.0594 176.501 85.499C176.941 85.9385 177.188 86.5346 177.188 87.1562V91.8438C177.188 92.4654 176.941 93.0615 176.501 93.501C176.061 93.9406 175.465 94.1875 174.844 94.1875H170.156C169.535 94.1875 168.939 93.9406 168.499 93.501C168.059 93.0615 167.812 92.4654 167.812 91.8438V87.1562ZM170.156 86.375C169.949 86.375 169.75 86.4573 169.604 86.6038C169.457 86.7503 169.375 86.949 169.375 87.1562V91.8438C169.375 92.051 169.457 92.2497 169.604 92.3962C169.75 92.5427 169.949 92.625 170.156 92.625H174.844C175.051 92.625 175.25 92.5427 175.396 92.3962C175.543 92.2497 175.625 92.051 175.625 91.8438V87.1562C175.625 86.949 175.543 86.7503 175.396 86.6038C175.25 86.4573 175.051 86.375 174.844 86.375H170.156Z" fill="#666666"/>
<rect x="97.5" y="65.5" width="49" height="69" rx="9.5" transform="rotate(90 97.5 65.5)" stroke="#999999"/>
<rect x="43" y="77" width="5" height="5" fill="#444444"/>
<rect x="43" y="87" width="5" height="5" fill="#D9D9D9"/>
<rect x="43" y="97" width="5" height="5" fill="#666666"/>
<rect x="55" y="77" width="5" height="5" fill="#888888"/>
<rect x="55" y="87" width="5" height="5" fill="#555555"/>
<rect x="55" y="97" width="5" height="5" fill="#999999"/>
<rect x="67" y="77" width="5" height="5" fill="#D9D9D9"/>
<rect x="67" y="87" width="5" height="5" fill="#D9D9D9"/>
<rect x="67" y="97" width="5" height="5" fill="#D9D9D9"/>
<rect x="79" y="77" width="5" height="5" fill="#555555"/>
<rect x="79" y="87" width="5" height="5" fill="#777777"/>
<rect x="79" y="97" width="5" height="5" fill="#444444"/>
</svg>
