<svg width="305" height="212" viewBox="0 0 305 212" fill="none" xmlns="http://www.w3.org/2000/svg">
<rect x="13" y="106" width="61.6959" height="41.9532" rx="5" fill="#555555"/>
<rect x="1" y="1" width="302.299" height="210" rx="19" stroke="#999999" stroke-width="2"/>
<rect x="12.9795" y="50.4762" width="177.953" height="14.2362" fill="#666666"/>
<rect x="291.834" y="84.9028" width="177.953" height="14.2362" transform="rotate(180 291.834 84.9028)" fill="#666666"/>
<path d="M246.612 186.156C246.612 184.5 247.955 183.156 249.612 183.156H279.203C280.86 183.156 282.203 184.5 282.203 186.156V194.393C282.203 196.05 280.86 197.393 279.203 197.393H249.612C247.955 197.393 246.612 196.05 246.612 194.393V186.156Z" fill="#666666"/>
<rect x="203.347" y="183.156" width="35.5906" height="14.2362" rx="3" fill="#666666"/>
<rect x="220.653" y="50.4762" width="71.1811" height="14.2362" fill="#666666"/>
<rect x="84.1602" y="84.9028" width="71.1811" height="14.2362" transform="rotate(180 84.1602 84.9028)" fill="#666666"/>
<path d="M2 20C2 10.0589 10.0589 2 20 2H285.276C294.555 2 302.118 9.44419 302.266 18.7224V18.7224V26H2V20V20Z" fill="#444444"/>
<rect x="12.9795" y="92.2993" width="7.21088" height="7.21088" fill="#666666"/>
<rect x="25.959" y="92.2993" width="7.21088" height="7.21088" fill="#999999"/>
<rect x="47.5918" y="92.2993" width="7.21088" height="7.21088" fill="#444444"/>
<rect x="76.4355" y="92.2993" width="7.21088" height="7.21088" fill="#888888"/>
<circle cx="15.1426" cy="13.7007" r="3.60544" fill="#888888"/>
<circle cx="25.2383" cy="13.7007" r="3.60544" fill="#888888"/>
<circle cx="35.333" cy="13.7007" r="3.60544" fill="#888888"/>
</svg>
