<svg width="303" height="211" viewBox="0 0 303 211" fill="none" xmlns="http://www.w3.org/2000/svg">
<rect x="176.45" y="151.772" width="61.6959" height="9.87134" transform="rotate(180 176.45 151.772)" fill="#444444"/>
<rect x="176.45" y="186.322" width="61.6959" height="9.87134" transform="rotate(180 176.45 186.322)" fill="#444444"/>
<rect x="66.6318" y="160.409" width="61.6959" height="9.87134" fill="#666666"/>
<rect x="103.649" y="151.772" width="86.3743" height="9.87134" transform="rotate(180 103.649 151.772)" fill="#777777"/>
<rect x="103.649" y="186.322" width="61.6959" height="9.87134" transform="rotate(180 103.649 186.322)" fill="#777777"/>
<rect x="41.9531" y="123.392" width="86.3743" height="9.87134" fill="#666666"/>
<rect x="176.45" y="170.281" width="37.0175" height="9.87134" transform="rotate(180 176.45 170.281)" fill="#999999"/>
<rect x="139.433" y="123.392" width="37.0175" height="9.87134" fill="#555555"/>
<rect x="0.5" y="0.5" width="301.31" height="210" rx="19.5" stroke="white"/>
<rect x="22.2109" y="29.614" width="61.6959" height="41.9532" rx="5" fill="#555555"/>
<rect x="185.088" y="120.924" width="99.9474" height="67.8655" rx="5" fill="#555555"/>
<rect x="95.0117" y="29.614" width="185.088" height="9.87134" fill="#999999"/>
<rect x="22.2109" y="93.7778" width="256.655" height="9.87134" fill="#999999"/>
<rect x="95.0117" y="45.655" width="123.392" height="9.87134" fill="#666666"/>
<rect x="230.743" y="45.655" width="49.3567" height="9.87134" fill="#666666"/>
<rect x="95.0117" y="61.6959" width="49.3567" height="9.87134" fill="#666666"/>
<rect x="156.708" y="61.6959" width="24.6784" height="9.87134" fill="#666666"/>
<rect x="254.188" y="61.6959" width="24.6784" height="9.87134" fill="#666666"/>
<rect x="193.726" y="61.6959" width="49.3567" height="9.87134" fill="#666666"/>
</svg>
